<svg xmlns="http://www.w3.org/2000/svg" width="860" height="480" viewBox="0 0 860 480">
    <defs>
    <radialGradient id="sunGlow" cx="50%" cy="50%" r="50%">
      <stop offset="0%" stop-color="#FFD166" stop-opacity="0.8"/>
      <stop offset="100%" stop-color="#FFD166" stop-opacity="0"/>
    </radialGradient>
    <filter id="dropShadow" x="-20%" y="-20%" width="150%" height="150%">
      <feDropShadow dx="0" dy="4" stdDeviation="3" flood-color="#000" flood-opacity="0.3"/>
    </filter>
  </defs>
  <style>
    /* Bubbly, bold, cartoonish font stack */
    text {
      font-family: 'Fredoka One', 'Nunito', 'Comic Sans MS', 'Arial Rounded MT Bold', sans-serif;
      font-weight: 800;
    }
    .panel {
      fill: #FFFFFF;
      stroke: #2B2D42;
      stroke-width: 4;
      rx: 16; /* Rounded corners */
    }
  </style>
    <rect width="860" height="480" fill="#1D2038"/><circle cx="201.0563026631424" cy="468.9066789751294" r="2.4591772349700127" fill="#FFF" opacity="0.8">
            <animate attributeName="opacity" values="0.2;1;0.2" dur="3.5461193051670543s" repeatCount="indefinite"/>
          </circle><circle cx="586.8727778004676" cy="325.82671179016353" r="2.2931431912813256" fill="#FFF" opacity="0.8">
            <animate attributeName="opacity" values="0.2;1;0.2" dur="2.509578589592997s" repeatCount="indefinite"/>
          </circle><circle cx="429.10170090096636" cy="269.8183168070491" r="1.2044140974718867" fill="#FFF" opacity="0.8">
            <animate attributeName="opacity" values="0.2;1;0.2" dur="2.3179470898917947s" repeatCount="indefinite"/>
          </circle><circle cx="488.0747667012558" cy="414.2023852095673" r="1.4422263439183582" fill="#FFF" opacity="0.8">
            <animate attributeName="opacity" values="0.2;1;0.2" dur="3.2081368882964707s" repeatCount="indefinite"/>
          </circle><circle cx="779.3083290347338" cy="464.75483698424847" r="1.6814865278131632" fill="#FFF" opacity="0.8">
            <animate attributeName="opacity" values="0.2;1;0.2" dur="2.704189141287136s" repeatCount="indefinite"/>
          </circle><circle cx="420.6923146782736" cy="441.2461089657681" r="2.8636486408302844" fill="#FFF" opacity="0.8">
            <animate attributeName="opacity" values="0.2;1;0.2" dur="2.935921467428056s" repeatCount="indefinite"/>
          </circle><circle cx="304.17503072433874" cy="392.01666450593274" r="2.033686364834965" fill="#FFF" opacity="0.8">
            <animate attributeName="opacity" values="0.2;1;0.2" dur="4.810286047434799s" repeatCount="indefinite"/>
          </circle><circle cx="836.0514838607911" cy="195.1517770474962" r="2.1311241647868493" fill="#FFF" opacity="0.8">
            <animate attributeName="opacity" values="0.2;1;0.2" dur="2.3495515669807245s" repeatCount="indefinite"/>
          </circle><circle cx="231.6917066870118" cy="471.8972760192705" r="1.7287722709328186" fill="#FFF" opacity="0.8">
            <animate attributeName="opacity" values="0.2;1;0.2" dur="4.196156993157974s" repeatCount="indefinite"/>
          </circle><circle cx="39.874839803628994" cy="281.0595214432076" r="2.090556366358786" fill="#FFF" opacity="0.8">
            <animate attributeName="opacity" values="0.2;1;0.2" dur="2.987828497789688s" repeatCount="indefinite"/>
          </circle><circle cx="754.1857215237156" cy="387.03617929483784" r="2.6017164417245953" fill="#FFF" opacity="0.8">
            <animate attributeName="opacity" values="0.2;1;0.2" dur="4.722372236837855s" repeatCount="indefinite"/>
          </circle><circle cx="803.9814004771653" cy="312.8556422391717" r="1.8447757724629101" fill="#FFF" opacity="0.8">
            <animate attributeName="opacity" values="0.2;1;0.2" dur="3.208381506538652s" repeatCount="indefinite"/>
          </circle><circle cx="509.7432921037416" cy="253.773277396068" r="3.4153426006547147" fill="#FFF" opacity="0.8">
            <animate attributeName="opacity" values="0.2;1;0.2" dur="4.785213571490547s" repeatCount="indefinite"/>
          </circle><circle cx="336.8873984439647" cy="174.82817639428447" r="3.3780899622287137" fill="#FFF" opacity="0.8">
            <animate attributeName="opacity" values="0.2;1;0.2" dur="4.253006017257949s" repeatCount="indefinite"/>
          </circle><circle cx="421.6253784808737" cy="438.20024470754583" r="1.11310417162177" fill="#FFF" opacity="0.8">
            <animate attributeName="opacity" values="0.2;1;0.2" dur="4.289505051678804s" repeatCount="indefinite"/>
          </circle><circle cx="627.754543216326" cy="458.7630015273589" r="1.3004328355844939" fill="#FFF" opacity="0.8">
            <animate attributeName="opacity" values="0.2;1;0.2" dur="4.752019406376715s" repeatCount="indefinite"/>
          </circle><circle cx="845.4517017547975" cy="385.6616803921904" r="1.307396102575015" fill="#FFF" opacity="0.8">
            <animate attributeName="opacity" values="0.2;1;0.2" dur="2.3664751540356708s" repeatCount="indefinite"/>
          </circle><circle cx="332.16562415958117" cy="328.40542730217584" r="1.202269509249506" fill="#FFF" opacity="0.8">
            <animate attributeName="opacity" values="0.2;1;0.2" dur="4.690709960708305s" repeatCount="indefinite"/>
          </circle><circle cx="817.9722389900527" cy="365.34506773571485" r="3.0810159723441846" fill="#FFF" opacity="0.8">
            <animate attributeName="opacity" values="0.2;1;0.2" dur="3.1327170609682184s" repeatCount="indefinite"/>
          </circle><circle cx="66.14083739060308" cy="8.933456507934636" r="1.4279018154315462" fill="#FFF" opacity="0.8">
            <animate attributeName="opacity" values="0.2;1;0.2" dur="3.03406040629467s" repeatCount="indefinite"/>
          </circle><circle cx="586.1663275151337" cy="54.68638913736935" r="3.4912385040628022" fill="#FFF" opacity="0.8">
            <animate attributeName="opacity" values="0.2;1;0.2" dur="4.024237504064436s" repeatCount="indefinite"/>
          </circle><circle cx="438.16477593654906" cy="345.75219661872785" r="3.004566182499166" fill="#FFF" opacity="0.8">
            <animate attributeName="opacity" values="0.2;1;0.2" dur="2.0974895322466676s" repeatCount="indefinite"/>
          </circle><circle cx="846.1144102706797" cy="314.154243171726" r="3.173736843716508" fill="#FFF" opacity="0.8">
            <animate attributeName="opacity" values="0.2;1;0.2" dur="3.0803105158785513s" repeatCount="indefinite"/>
          </circle><circle cx="602.942732236163" cy="438.0411544733066" r="1.9851566679086927" fill="#FFF" opacity="0.8">
            <animate attributeName="opacity" values="0.2;1;0.2" dur="4.377042036031234s" repeatCount="indefinite"/>
          </circle><circle cx="815.9427895375807" cy="273.31338866288405" r="2.8834604741788237" fill="#FFF" opacity="0.8">
            <animate attributeName="opacity" values="0.2;1;0.2" dur="3.8932969354838454s" repeatCount="indefinite"/>
          </circle><circle cx="506.1960307449542" cy="12.018653441763867" r="2.835124840929256" fill="#FFF" opacity="0.8">
            <animate attributeName="opacity" values="0.2;1;0.2" dur="3.909546180777572s" repeatCount="indefinite"/>
          </circle><circle cx="495.33655703023885" cy="300.6205312532219" r="2.152180515773207" fill="#FFF" opacity="0.8">
            <animate attributeName="opacity" values="0.2;1;0.2" dur="3.529025200522393s" repeatCount="indefinite"/>
          </circle><circle cx="180.6279960428766" cy="90.26032618023898" r="3.069245527978862" fill="#FFF" opacity="0.8">
            <animate attributeName="opacity" values="0.2;1;0.2" dur="4.102276557083737s" repeatCount="indefinite"/>
          </circle><circle cx="8.345166744547594" cy="242.85805834820576" r="1.973645411786754" fill="#FFF" opacity="0.8">
            <animate attributeName="opacity" values="0.2;1;0.2" dur="3.9148208815321963s" repeatCount="indefinite"/>
          </circle><circle cx="299.8781032444967" cy="468.4871301034105" r="1.8082872470394276" fill="#FFF" opacity="0.8">
            <animate attributeName="opacity" values="0.2;1;0.2" dur="4.521077091187035s" repeatCount="indefinite"/>
          </circle><circle cx="226.45361268688836" cy="189.70870645205864" r="2.3980742281131597" fill="#FFF" opacity="0.8">
            <animate attributeName="opacity" values="0.2;1;0.2" dur="3.82157734984847s" repeatCount="indefinite"/>
          </circle><circle cx="286.0537600562936" cy="248.43299616011262" r="2.562576723934663" fill="#FFF" opacity="0.8">
            <animate attributeName="opacity" values="0.2;1;0.2" dur="4.719577121224886s" repeatCount="indefinite"/>
          </circle><circle cx="746.7484092682178" cy="311.933565519358" r="2.440397775058707" fill="#FFF" opacity="0.8">
            <animate attributeName="opacity" values="0.2;1;0.2" dur="2.6810300563185576s" repeatCount="indefinite"/>
          </circle><circle cx="148.2930645614633" cy="75.91983279592046" r="3.120868821458666" fill="#FFF" opacity="0.8">
            <animate attributeName="opacity" values="0.2;1;0.2" dur="4.290010760858519s" repeatCount="indefinite"/>
          </circle><circle cx="799.2470612570307" cy="77.62796578566042" r="2.355040164550786" fill="#FFF" opacity="0.8">
            <animate attributeName="opacity" values="0.2;1;0.2" dur="4.069357183573244s" repeatCount="indefinite"/>
          </circle><circle cx="440.169954606319" cy="445.9947892214848" r="1.4086826078250472" fill="#FFF" opacity="0.8">
            <animate attributeName="opacity" values="0.2;1;0.2" dur="4.696457314463802s" repeatCount="indefinite"/>
          </circle><circle cx="117.3808690085715" cy="401.9212001627912" r="1.3004082785999933" fill="#FFF" opacity="0.8">
            <animate attributeName="opacity" values="0.2;1;0.2" dur="4.278442159703822s" repeatCount="indefinite"/>
          </circle><circle cx="361.10007972052864" cy="425.04377148126923" r="1.85878964308802" fill="#FFF" opacity="0.8">
            <animate attributeName="opacity" values="0.2;1;0.2" dur="2.5405061031332394s" repeatCount="indefinite"/>
          </circle><circle cx="59.90985276012351" cy="147.1433512194433" r="3.0465184913927974" fill="#FFF" opacity="0.8">
            <animate attributeName="opacity" values="0.2;1;0.2" dur="3.2066210412249303s" repeatCount="indefinite"/>
          </circle><circle cx="510.5644237462177" cy="73.75458740096764" r="2.331054336487898" fill="#FFF" opacity="0.8">
            <animate attributeName="opacity" values="0.2;1;0.2" dur="4.867193946198229s" repeatCount="indefinite"/>
          </circle>
    <path d="M537.60,217.13 L537.90,220.19 L537.54,223.38 L536.52,226.67 L534.84,230.04 L532.51,233.47 L529.55,236.94 L525.98,240.43 L521.81,243.92 L517.08,247.38 L511.82,250.80 L506.04,254.15 L499.80,257.42 L493.13,260.58 L486.07,263.61 L478.67,266.49 L470.96,269.21 L463.00,271.75 L454.84,274.10 L446.53,276.24 L438.11,278.15 L429.64,279.82 L421.18,281.26 L412.77,282.43 L404.46,283.35 L396.32,284.00 L388.38,284.37 L380.69,284.48 L373.32,284.31 L366.29,283.86 L359.65,283.15 L353.45,282.17 L347.72,280.93 L342.50,279.43 L337.81,277.70 L333.70,275.73 L330.18,273.54 L327.27,271.14 L325.00,268.56 L323.37,265.79 L322.40,262.87 L322.10,259.81 L322.46,256.62 L323.48,253.33 L325.16,249.96 L327.49,246.53 L330.45,243.06 L334.02,239.57 L338.19,236.08 L342.92,232.62 L348.18,229.20 L353.96,225.85 L360.20,222.58 L366.87,219.42 L373.93,216.39 L381.33,213.51 L389.04,210.79 L397.00,208.25 L405.16,205.90 L413.47,203.76 L421.89,201.85 L430.36,200.18 L438.82,198.74 L447.23,197.57 L455.54,196.65 L463.68,196.00 L471.62,195.63 L479.31,195.52 L486.68,195.69 L493.71,196.14 L500.35,196.85 L506.55,197.83 L512.28,199.07 L517.50,200.57 L522.19,202.30 L526.30,204.27 L529.82,206.46 L532.73,208.86 L535.00,211.44 L536.63,214.21 L537.60,217.13 Z" fill="none" stroke="#FFFFFF" stroke-width="2" stroke-opacity="0.25" stroke-dasharray="8, 8"/><path d="M601.18,203.62 L601.64,208.41 L601.05,213.40 L599.41,218.55 L596.72,223.83 L593.00,229.22 L588.28,234.67 L582.58,240.15 L575.94,245.64 L568.40,251.08 L560.01,256.46 L550.81,261.74 L540.88,266.89 L530.25,271.86 L519.01,276.65 L507.22,281.20 L494.96,285.50 L482.29,289.52 L469.30,293.24 L456.07,296.63 L442.68,299.67 L429.21,302.34 L415.75,304.62 L402.37,306.51 L389.17,307.99 L376.21,309.05 L363.59,309.68 L351.37,309.89 L339.65,309.66 L328.47,309.00 L317.93,307.92 L308.07,306.42 L298.97,304.51 L290.68,302.20 L283.24,299.51 L276.71,296.45 L271.12,293.04 L266.51,289.31 L262.92,285.27 L260.35,280.95 L258.82,276.38 L258.36,271.59 L258.95,266.60 L260.59,261.45 L263.28,256.17 L267.00,250.78 L271.72,245.33 L277.42,239.85 L284.06,234.36 L291.60,228.92 L299.99,223.54 L309.19,218.26 L319.12,213.11 L329.75,208.14 L340.99,203.35 L352.78,198.80 L365.04,194.50 L377.71,190.48 L390.70,186.76 L403.93,183.37 L417.32,180.33 L430.79,177.66 L444.25,175.38 L457.63,173.49 L470.83,172.01 L483.79,170.95 L496.41,170.32 L508.63,170.11 L520.35,170.34 L531.53,171.00 L542.07,172.08 L551.93,173.58 L561.03,175.49 L569.32,177.80 L576.76,180.49 L583.29,183.55 L588.88,186.96 L593.49,190.69 L597.08,194.73 L599.65,199.05 L601.18,203.62 Z" fill="none" stroke="#FFFFFF" stroke-width="2" stroke-opacity="0.25" stroke-dasharray="8, 8"/><path d="M664.76,190.10 L665.40,196.70 L664.60,203.57 L662.35,210.66 L658.66,217.93 L653.57,225.34 L647.10,232.84 L639.29,240.39 L630.19,247.93 L619.85,255.42 L608.35,262.82 L595.74,270.07 L582.11,277.14 L567.55,283.98 L552.14,290.56 L535.97,296.81 L519.15,302.72 L501.78,308.25 L483.97,313.35 L465.83,318.00 L447.46,322.16 L428.99,325.83 L410.53,328.96 L392.18,331.54 L374.07,333.56 L356.30,335.01 L338.98,335.86 L322.23,336.13 L306.14,335.80 L290.82,334.88 L276.35,333.38 L262.83,331.30 L250.34,328.66 L238.96,325.48 L228.76,321.76 L219.80,317.54 L212.13,312.85 L205.81,307.70 L200.87,302.14 L197.34,296.19 L195.24,289.90 L194.60,283.30 L195.40,276.43 L197.65,269.34 L201.34,262.07 L206.43,254.66 L212.90,247.16 L220.71,239.61 L229.81,232.07 L240.15,224.58 L251.65,217.18 L264.26,209.93 L277.89,202.86 L292.45,196.02 L307.86,189.44 L324.03,183.19 L340.85,177.28 L358.22,171.75 L376.03,166.65 L394.17,162.00 L412.54,157.84 L431.01,154.17 L449.47,151.04 L467.82,148.46 L485.93,146.44 L503.70,144.99 L521.02,144.14 L537.77,143.87 L553.86,144.20 L569.18,145.12 L583.65,146.62 L597.17,148.70 L609.66,151.34 L621.04,154.52 L631.24,158.24 L640.20,162.46 L647.87,167.15 L654.19,172.30 L659.13,177.86 L662.66,183.81 L664.76,190.10 Z" fill="none" stroke="#FFFFFF" stroke-width="2" stroke-opacity="0.25" stroke-dasharray="8, 8"/><path d="M728.34,176.59 L729.16,184.99 L728.14,193.74 L725.29,202.77 L720.61,212.03 L714.14,221.47 L705.92,231.01 L696.00,240.62 L684.43,250.22 L671.30,259.75 L656.69,269.17 L640.67,278.40 L623.35,287.40 L604.85,296.11 L585.26,304.47 L564.72,312.43 L543.35,319.94 L521.28,326.97 L498.64,333.45 L475.59,339.36 L452.25,344.66 L428.77,349.31 L405.30,353.29 L381.99,356.57 L358.97,359.13 L336.39,360.96 L314.38,362.04 L293.09,362.37 L272.64,361.95 L253.16,360.77 L234.78,358.85 L217.59,356.19 L201.72,352.82 L187.25,348.75 L174.28,344.02 L162.89,338.64 L153.14,332.65 L145.10,326.09 L138.82,319.01 L134.33,311.43 L131.66,303.41 L130.84,295.01 L131.86,286.26 L134.71,277.23 L139.39,267.97 L145.86,258.53 L154.08,248.99 L164.00,239.38 L175.57,229.78 L188.70,220.25 L203.31,210.83 L219.33,201.60 L236.65,192.60 L255.15,183.89 L274.74,175.53 L295.28,167.57 L316.65,160.06 L338.72,153.03 L361.36,146.55 L384.41,140.64 L407.75,135.34 L431.23,130.69 L454.70,126.71 L478.01,123.43 L501.03,120.87 L523.61,119.04 L545.62,117.96 L566.91,117.63 L587.36,118.05 L606.84,119.23 L625.22,121.15 L642.41,123.81 L658.28,127.18 L672.75,131.25 L685.72,135.98 L697.11,141.36 L706.86,147.35 L714.90,153.91 L721.18,160.99 L725.67,168.57 L728.34,176.59 Z" fill="none" stroke="#FFFFFF" stroke-width="2" stroke-opacity="0.25" stroke-dasharray="8, 8"/><path d="M791.91,163.07 L792.92,173.29 L791.69,183.91 L788.22,194.88 L782.55,206.13 L774.71,217.59 L764.74,229.19 L752.71,240.85 L738.68,252.51 L722.76,264.09 L705.02,275.52 L685.60,286.73 L664.59,297.66 L642.15,308.23 L618.39,318.38 L593.47,328.04 L567.54,337.16 L540.77,345.69 L513.31,353.56 L485.34,360.73 L457.03,367.16 L428.55,372.80 L400.08,377.63 L371.79,381.60 L343.87,384.71 L316.47,386.92 L289.78,388.22 L263.95,388.62 L239.14,388.09 L215.51,386.65 L193.20,384.31 L172.35,381.08 L153.09,376.98 L135.54,372.03 L119.80,366.27 L105.98,359.73 L94.15,352.46 L84.39,344.49 L76.77,335.87 L71.32,326.67 L68.09,316.93 L67.08,306.71 L68.31,296.09 L71.78,285.12 L77.45,273.87 L85.29,262.41 L95.26,250.81 L107.29,239.15 L121.32,227.49 L137.24,215.91 L154.98,204.48 L174.40,193.27 L195.41,182.34 L217.85,171.77 L241.61,161.62 L266.53,151.96 L292.46,142.84 L319.23,134.31 L346.69,126.44 L374.66,119.27 L402.97,112.84 L431.45,107.20 L459.92,102.37 L488.21,98.40 L516.13,95.29 L543.53,93.08 L570.22,91.78 L596.05,91.38 L620.86,91.91 L644.49,93.35 L666.80,95.69 L687.65,98.92 L706.91,103.02 L724.46,107.97 L740.20,113.73 L754.02,120.27 L765.85,127.54 L775.61,135.51 L783.23,144.13 L788.68,153.33 L791.91,163.07 Z" fill="none" stroke="#FFFFFF" stroke-width="2" stroke-opacity="0.25" stroke-dasharray="8, 8"/>
    <g><animateMotion dur="12s" repeatCount="indefinite" rotate="0" calcMode="linear"><mpath href="#op0"/></animateMotion><circle r="16" fill="#FF477E" stroke="#9E0031" stroke-width="3"/><circle cx="-4.8" cy="-4.8" r="4.8" fill="#FF99B6"/><g><animateTransform attributeName="transform" type="rotate" from="0" to="360" dur="2.4000000000000004s" repeatCount="indefinite"/>
              <circle cx="28" cy="0" r="4" fill="#EAEAEA" stroke="#A0A0A0" stroke-width="2"/>
            </g><rect x="-40" y="24" width="80" height="20" rx="10" fill="#FFF" stroke="#9E0031" stroke-width="2"/><text x="0" y="38" text-anchor="middle" font-size="11" fill="#9E0031">altrin7311</text></g><g><animateMotion dur="18s" repeatCount="indefinite" rotate="0" calcMode="linear"><mpath href="#op1"/></animateMotion><circle r="14" fill="#00B4D8" stroke="#0077B6" stroke-width="3"/><circle cx="-4.2" cy="-4.2" r="4.2" fill="#90E0EF"/><rect x="-40" y="22" width="80" height="20" rx="10" fill="#FFF" stroke="#0077B6" stroke-width="2"/><text x="0" y="36" text-anchor="middle" font-size="11" fill="#0077B6">hireloop</text></g><g><animateMotion dur="24s" repeatCount="indefinite" rotate="0" calcMode="linear"><mpath href="#op2"/></animateMotion><circle r="18" fill="#FFD166" stroke="#E09F3E" stroke-width="3"/><circle cx="-5.3999999999999995" cy="-5.3999999999999995" r="5.3999999999999995" fill="#FFE6A7"/><g><animateTransform attributeName="transform" type="rotate" from="0" to="360" dur="4.800000000000001s" repeatCount="indefinite"/>
              <circle cx="30" cy="0" r="4" fill="#EAEAEA" stroke="#A0A0A0" stroke-width="2"/>
            </g><rect x="-40" y="26" width="80" height="20" rx="10" fill="#FFF" stroke="#E09F3E" stroke-width="2"/><text x="0" y="40" text-anchor="middle" font-size="11" fill="#E09F3E">Sentient</text></g><g><animateMotion dur="30s" repeatCount="indefinite" rotate="0" calcMode="linear"><mpath href="#op3"/></animateMotion><circle r="15" fill="#06D6A0" stroke="#028090" stroke-width="3"/><circle cx="-4.5" cy="-4.5" r="4.5" fill="#83E8CA"/><rect x="-40" y="23" width="80" height="20" rx="10" fill="#FFF" stroke="#028090" stroke-width="2"/><text x="0" y="37" text-anchor="middle" font-size="11" fill="#028090">deriv-assessmen</text></g><g><animateMotion dur="38s" repeatCount="indefinite" rotate="0" calcMode="linear"><mpath href="#op4"/></animateMotion><circle r="13" fill="#FF9F1C" stroke="#9A031E" stroke-width="3"/><circle cx="-3.9" cy="-3.9" r="3.9" fill="#FFBF69"/><g><animateTransform attributeName="transform" type="rotate" from="0" to="360" dur="7.6000000000000005s" repeatCount="indefinite"/>
              <circle cx="25" cy="0" r="4" fill="#EAEAEA" stroke="#A0A0A0" stroke-width="2"/>
            </g><rect x="-40" y="21" width="80" height="20" rx="10" fill="#FFF" stroke="#9A031E" stroke-width="2"/><text x="0" y="35" text-anchor="middle" font-size="11" fill="#9A031E">scRNA-seq-Bench</text></g><path id="op0" d="M537.60,217.13 L537.90,220.19 L537.54,223.38 L536.52,226.67 L534.84,230.04 L532.51,233.47 L529.55,236.94 L525.98,240.43 L521.81,243.92 L517.08,247.38 L511.82,250.80 L506.04,254.15 L499.80,257.42 L493.13,260.58 L486.07,263.61 L478.67,266.49 L470.96,269.21 L463.00,271.75 L454.84,274.10 L446.53,276.24 L438.11,278.15 L429.64,279.82 L421.18,281.26 L412.77,282.43 L404.46,283.35 L396.32,284.00 L388.38,284.37 L380.69,284.48 L373.32,284.31 L366.29,283.86 L359.65,283.15 L353.45,282.17 L347.72,280.93 L342.50,279.43 L337.81,277.70 L333.70,275.73 L330.18,273.54 L327.27,271.14 L325.00,268.56 L323.37,265.79 L322.40,262.87 L322.10,259.81 L322.46,256.62 L323.48,253.33 L325.16,249.96 L327.49,246.53 L330.45,243.06 L334.02,239.57 L338.19,236.08 L342.92,232.62 L348.18,229.20 L353.96,225.85 L360.20,222.58 L366.87,219.42 L373.93,216.39 L381.33,213.51 L389.04,210.79 L397.00,208.25 L405.16,205.90 L413.47,203.76 L421.89,201.85 L430.36,200.18 L438.82,198.74 L447.23,197.57 L455.54,196.65 L463.68,196.00 L471.62,195.63 L479.31,195.52 L486.68,195.69 L493.71,196.14 L500.35,196.85 L506.55,197.83 L512.28,199.07 L517.50,200.57 L522.19,202.30 L526.30,204.27 L529.82,206.46 L532.73,208.86 L535.00,211.44 L536.63,214.21 L537.60,217.13 Z" fill="none"/><path id="op1" d="M496.01,285.15 L483.38,289.20 L470.41,292.94 L457.20,296.36 L443.82,299.42 L430.35,302.13 L416.88,304.45 L403.50,306.37 L390.27,307.88 L377.29,308.98 L364.64,309.65 L352.39,309.88 L340.62,309.69 L329.39,309.07 L318.79,308.03 L308.88,306.56 L299.71,304.68 L291.34,302.41 L283.83,299.75 L277.22,296.72 L271.56,293.34 L266.87,289.64 L263.18,285.62 L260.52,281.33 L258.91,276.78 L258.36,272.00 L258.86,267.03 L260.41,261.89 L263.02,256.62 L266.65,251.24 L271.29,245.79 L276.90,240.31 L283.46,234.83 L290.93,229.37 L299.25,223.99 L308.38,218.70 L318.26,213.54 L328.82,208.55 L340.02,203.75 L351.76,199.17 L363.99,194.85 L376.62,190.80 L389.59,187.06 L402.80,183.64 L416.18,180.58 L429.65,177.87 L443.12,175.55 L456.50,173.63 L469.73,172.12 L482.71,171.02 L495.36,170.35 L507.61,170.12 L519.38,170.31 L530.61,170.93 L541.21,171.97 L551.12,173.44 L560.29,175.32 L568.66,177.59 L576.17,180.25 L582.78,183.28 L588.44,186.66 L593.13,190.36 L596.82,194.38 L599.48,198.67 L601.09,203.22 L601.64,208.00 L601.14,212.97 L599.59,218.11 L596.98,223.38 L593.35,228.76 L588.71,234.21 L583.10,239.69 L576.54,245.17 L569.07,250.63 L560.75,256.01 L551.62,261.30 L541.74,266.46 L531.18,271.45 L519.98,276.25 L508.24,280.83 L496.01,285.15 Z" fill="none"/><path id="op2" d="M252.38,329.15 L240.81,326.05 L230.40,322.43 L221.22,318.29 L213.33,313.67 L206.78,308.60 L201.60,303.11 L197.83,297.22 L195.50,290.99 L194.61,284.43 L195.16,277.61 L197.17,270.55 L200.62,263.31 L205.47,255.92 L211.71,248.43 L219.30,240.89 L228.19,233.35 L238.32,225.84 L249.63,218.43 L262.05,211.14 L275.51,204.04 L289.93,197.15 L305.20,190.53 L321.25,184.22 L337.96,178.25 L355.25,172.66 L372.99,167.48 L391.09,162.76 L409.42,158.51 L427.88,154.76 L446.36,151.53 L464.73,148.85 L482.89,146.74 L500.73,145.20 L518.13,144.24 L534.98,143.87 L551.19,144.10 L566.65,144.92 L581.27,146.32 L594.95,148.30 L607.62,150.85 L619.19,153.95 L629.60,157.57 L638.78,161.71 L646.67,166.33 L653.22,171.40 L658.40,176.89 L662.17,182.78 L664.50,189.01 L665.39,195.57 L664.84,202.39 L662.83,209.45 L659.38,216.69 L654.53,224.08 L648.29,231.57 L640.70,239.11 L631.81,246.65 L621.68,254.16 L610.37,261.57 L597.95,268.86 L584.49,275.96 L570.07,282.85 L554.80,289.47 L538.75,295.78 L522.04,301.75 L504.75,307.34 L487.01,312.52 L468.91,317.24 L450.58,321.49 L432.12,325.24 L413.64,328.47 L395.27,331.15 L377.11,333.26 L359.27,334.80 L341.87,335.76 L325.02,336.13 L308.81,335.90 L293.35,335.08 L278.73,333.68 L265.05,331.70 L252.38,329.15 Z" fill="none"/><path id="op3" d="M172.48,232.21 L185.22,222.66 L199.47,213.20 L215.14,203.92 L232.14,194.86 L250.35,186.07 L269.68,177.62 L289.99,169.55 L311.16,161.92 L333.07,154.76 L355.57,148.14 L378.54,142.08 L401.82,136.62 L425.27,131.80 L448.76,127.65 L472.12,124.19 L495.23,121.45 L517.94,119.43 L540.10,118.16 L561.59,117.64 L582.26,117.87 L602.00,118.86 L620.67,120.60 L638.17,123.07 L654.39,126.26 L669.22,130.15 L682.58,134.72 L694.38,139.94 L704.55,145.78 L713.02,152.19 L719.76,159.15 L724.70,166.61 L727.83,174.52 L729.13,182.83 L728.57,191.49 L726.18,200.46 L721.96,209.67 L715.95,219.06 L708.17,228.59 L698.67,238.18 L687.52,247.79 L674.78,257.34 L660.53,266.80 L644.86,276.08 L627.86,285.14 L609.65,293.93 L590.32,302.38 L570.01,310.45 L548.84,318.08 L526.93,325.24 L504.43,331.86 L481.46,337.92 L458.18,343.38 L434.73,348.20 L411.24,352.35 L387.88,355.81 L364.77,358.55 L342.06,360.57 L319.90,361.84 L298.41,362.36 L277.74,362.13 L258.00,361.14 L239.33,359.40 L221.83,356.93 L205.61,353.74 L190.78,349.85 L177.42,345.28 L165.62,340.06 L155.45,334.22 L146.98,327.81 L140.24,320.85 L135.30,313.39 L132.17,305.48 L130.87,297.17 L131.43,288.51 L133.82,279.54 L138.04,270.33 L144.05,260.94 L151.83,251.41 L161.33,241.82 L172.48,232.21 Z" fill="none"/><path id="op4" d="M506.74,96.24 L534.34,93.73 L561.29,92.12 L587.43,91.41 L612.60,91.63 L636.65,92.76 L659.42,94.80 L680.77,97.73 L700.58,101.54 L718.73,106.20 L735.09,111.69 L749.57,117.97 L762.08,125.00 L772.54,132.74 L780.89,141.15 L787.08,150.16 L791.07,159.72 L792.83,169.78 L792.35,180.28 L789.64,191.14 L784.72,202.30 L777.60,213.70 L768.34,225.26 L757.00,236.90 L743.64,248.57 L728.35,260.19 L711.21,271.68 L692.35,282.97 L671.86,294.00 L649.89,304.70 L626.56,315.00 L602.01,324.83 L576.41,334.14 L549.90,342.88 L522.66,350.97 L494.84,358.39 L466.63,365.07 L438.18,370.99 L409.69,376.09 L381.32,380.36 L353.26,383.76 L325.66,386.27 L298.71,387.88 L272.57,388.59 L247.40,388.37 L223.35,387.24 L200.58,385.20 L179.23,382.27 L159.42,378.46 L141.27,373.80 L124.91,368.31 L110.43,362.03 L97.92,355.00 L87.46,347.26 L79.11,338.85 L72.92,329.84 L68.93,320.28 L67.17,310.22 L67.65,299.72 L70.36,288.86 L75.28,277.70 L82.40,266.30 L91.66,254.74 L103.00,243.10 L116.36,231.43 L131.65,219.81 L148.79,208.32 L167.65,197.03 L188.14,186.00 L210.11,175.30 L233.44,165.00 L257.99,155.17 L283.59,145.86 L310.10,137.12 L337.34,129.03 L365.16,121.61 L393.37,114.93 L421.82,109.01 L450.31,103.91 L478.68,99.64 L506.74,96.24 Z" fill="none"/>
    
    <circle cx="430" cy="240" r="65" fill="url(#sunGlow)"/>
    <circle cx="430" cy="240" r="35" fill="#FFD166" stroke="#E09F3E" stroke-width="4"/>
    <circle cx="418" cy="230" r="8" fill="#FFF" opacity="0.6"/> <text x="430" y="246" text-anchor="middle" font-size="20" fill="#E09F3E">AT</text>
  
    <g transform="translate(20, 20)" filter="url(#dropShadow)"><rect width="180" height="120" class="panel" /><rect x="10" y="10" width="160" height="30" rx="8" fill="#FF477E"/><text x="90" y="30" text-anchor="middle" font-size="14" fill="#FFF">GALAXY STATS</text><text x="15" y="65" font-size="12" fill="#2B2D42">REPOS</text><text x="165" y="65" text-anchor="end" font-size="14" fill="#00B4D8" stroke="#2B2D42" stroke-width="1">19</text><text x="15" y="87" font-size="12" fill="#2B2D42">STARS</text><text x="165" y="87" text-anchor="end" font-size="14" fill="#FFD166" stroke="#2B2D42" stroke-width="1">1</text><text x="15" y="109" font-size="12" fill="#2B2D42">COMMITS (30D)</text><text x="165" y="109" text-anchor="end" font-size="14" fill="#06D6A0" stroke="#2B2D42" stroke-width="1">0</text></g><g transform="translate(700, 420)" filter="url(#dropShadow)"><rect width="140" height="40" rx="20" fill="#FF9F1C" stroke="#9A031E" stroke-width="3"/><text x="70" y="25" text-anchor="middle" font-size="14" fill="#FFF">ALTRIN7311</text></g>
  </svg>